<svg id="Objects" xmlns="http://www.w3.org/2000/svg" viewBox="0 0 374.1 235.4"><style>.st0{fill:#f5ebeb}.st1{fill:#dacdcd}.st2{fill:none;stroke:#dacdcd;stroke-width:2;stroke-miterlimit:10}.st3{fill:#dfd3d2}.st4{fill:#ad9e9e}.st5{fill:#b3b3b3}.st6{fill:#e6e6e6}.st7{fill:#f4f4f4}.st8{fill:#666}.st9{fill:#f2f2f2}.st10{fill:#ccc}.st11{fill:#edb996}.st12{fill:#dda885}.st13{fill:#6b6b6b}.st14{fill:#999}.st15{fill:#efd6c5}.st16{fill:#e8e2e2}.st17{fill:#ff1f37}.st18{fill:#ff4a64}.st19{fill:#fc9f3a}.st20{fill:#f98410}</style><path class="st0" d="M335 166.6c0 6.6-5.4 12-12 12h-2.5c-6.6 0-12-5.4-12-12v-21c0-6.6 5.4-12 12-12h2.5c6.6 0 12 5.4 12 12v21z"/><path class="st1" d="M321.1 148.5H311v-2.9c0-5.2 4.3-9.5 9.5-9.5h.6v12.4zM332.5 148.5h-10.4v-12.4h.9c5.2 0 9.5 4.3 9.5 9.5v2.9z"/><path class="st2" d="M274.8 52.9v16.3c0 4.7 6 4.9 6 4.9h13.1c4.5 0 4.4 4.4 4.4 4.4v21.8-14 16.3c0 4.7 6 4.9 6 4.9h13.1c4.5 0 4.4 4.4 4.4 4.4v21.7"/><path class="st0" d="M84.1 57v58.1h188V57h-188zm187.6 57.6h-187V57.5h187v57.1z"/><path class="st0" d="M77.6 44.1v105.5h201V44.1h-201zm118.5 93v8.5h-39.8v-26.2h39.8v17.7zm76.6-21.5h-189V56.5h189v59.1z"/><path class="st3" d="M84.6 114.6h187V57.5h-187v57.1zm172.6-52.4h9.6v9.6h-9.6v-9.6zm0 12.9h9.6v9.6h-9.6v-9.6zm0 12.4h9.6v9.6h-9.6v-9.6zm-3.4 22.2h-22.5v-9.6h22.5v9.6zm-9.5-47.5h9.6v9.6h-9.6v-9.6zm0 12.9h9.6v9.6h-9.6v-9.6zm0 12.4h9.6v9.6h-9.6v-9.6zm-13-25.3h9.6v9.6h-9.6v-9.6zm0 12.9h9.6v9.6h-9.6v-9.6zm0 12.4h9.6v9.6h-9.6v-9.6zm-12.9-25.3h9.6v9.6h-9.6v-9.6zm0 12.9h9.6v9.6h-9.6v-9.6zm0 12.4h9.6v9.6h-9.6v-9.6zm0 12.7h9.6v9.6h-9.6v-9.6zm-13-38h9.6v9.6h-9.6v-9.6zm0 12.9h9.6v9.6h-9.6v-9.6zm0 12.4h9.6v9.6h-9.6v-9.6zm0 12.7h9.6v9.6h-9.6v-9.6zm-12.9-38h9.6v9.6h-9.6v-9.6zm0 12.9h9.6v9.6h-9.6v-9.6zm0 12.4h9.6v9.6h-9.6v-9.6zm0 12.7h9.6v9.6h-9.6v-9.6zm-12.9-38h9.6v9.6h-9.6v-9.6zm0 12.9h9.6v9.6h-9.6v-9.6zm0 12.4h9.6v9.6h-9.6v-9.6zm-13-25.3h9.6v9.6h-9.6v-9.6zm0 12.9h9.6v9.6h-9.6v-9.6zm0 12.4h9.6v9.6h-9.6v-9.6zm-12.9-25.3h9.6v9.6h-9.6v-9.6zm0 12.9h9.6v9.6h-9.6v-9.6zm0 12.4h9.6v9.6h-9.6v-9.6zm-13-25.3h9.6v9.6h-9.6v-9.6zm0 12.9h9.6v9.6h-9.6v-9.6zm0 12.4h9.6v9.6h-9.6v-9.6zm-12.9-25.3h9.6v9.6h-9.6v-9.6zm0 12.9h9.6v9.6h-9.6v-9.6zm0 12.4h9.6v9.6h-9.6v-9.6zm-12.9-25.3h9.6v9.6h-9.6v-9.6zm0 12.9h9.6v9.6h-9.6v-9.6zm0 12.4h9.6v9.6h-9.6v-9.6zm0 12.7h74.3v9.6h-74.3v-9.6zm-13-38h9.6v9.6h-9.6v-9.6zm0 12.9h9.6v9.6h-9.6v-9.6zm0 12.4h9.6v9.6h-9.6v-9.6zm0 12.7h9.6v9.6h-9.6v-9.6zm-13.5-38H98v9.6h-9.6v-9.6zm0 12.9H98v9.6h-9.6v-9.6zm0 12.4H98v9.6h-9.6v-9.6zm0 12.7H98v9.6h-9.6v-9.6z"/><path class="st4" d="M88.4 62.2H98v9.6h-9.6zM101.9 62.2h9.6v9.6h-9.6zM114.9 62.2h9.6v9.6h-9.6zM127.8 62.2h9.6v9.6h-9.6zM140.7 62.2h9.6v9.6h-9.6zM153.7 62.2h9.6v9.6h-9.6zM166.6 62.2h9.6v9.6h-9.6zM179.6 62.2h9.6v9.6h-9.6zM192.5 62.2h9.6v9.6h-9.6zM205.4 62.2h9.6v9.6h-9.6zM218.4 62.2h9.6v9.6h-9.6zM231.3 62.2h9.6v9.6h-9.6zM244.3 62.2h9.6v9.6h-9.6zM257.2 62.2h9.6v9.6h-9.6zM88.4 75.1H98v9.6h-9.6zM101.9 75.1h9.6v9.6h-9.6zM114.9 75.1h9.6v9.6h-9.6zM127.8 75.1h9.6v9.6h-9.6zM140.7 75.1h9.6v9.6h-9.6zM153.7 75.1h9.6v9.6h-9.6zM166.6 75.1h9.6v9.6h-9.6zM179.6 75.1h9.6v9.6h-9.6zM192.5 75.1h9.6v9.6h-9.6zM205.4 75.1h9.6v9.6h-9.6zM218.4 75.1h9.6v9.6h-9.6zM231.3 75.1h9.6v9.6h-9.6zM244.3 75.1h9.6v9.6h-9.6zM257.2 75.1h9.6v9.6h-9.6zM88.4 87.5H98v9.6h-9.6zM101.9 87.5h9.6v9.6h-9.6zM114.9 87.5h9.6v9.6h-9.6zM127.8 87.5h9.6v9.6h-9.6zM140.7 87.5h9.6v9.6h-9.6zM153.7 87.5h9.6v9.6h-9.6zM166.6 87.5h9.6v9.6h-9.6zM179.6 87.5h9.6v9.6h-9.6zM192.5 87.5h9.6v9.6h-9.6zM205.4 87.5h9.6v9.6h-9.6zM218.4 87.5h9.6v9.6h-9.6zM231.3 87.5h9.6v9.6h-9.6zM244.3 87.5h9.6v9.6h-9.6zM257.2 87.5h9.6v9.6h-9.6zM88.4 100.2H98v9.6h-9.6zM101.9 100.2h9.6v9.6h-9.6zM114.9 100.2h74.3v9.6h-74.3zM192.5 100.2h9.6v9.6h-9.6zM205.4 100.2h9.6v9.6h-9.6zM218.4 100.2h9.6v9.6h-9.6zM231.3 100.2h22.5v9.6h-22.5z"/><path class="st3" d="M175.7 137.1h19.4v-16.8h-37.8v16.8z"/><path class="st4" d="M156.3 137.1v8.5h39.8v-26.2h-39.8v17.7zm38.8-16.8V137h-37.8v-16.7h37.8zm-18.4 24.3v-6.5h18.4v6.5h-18.4zm-19.4-4v-2.5h18.4v6.5h-18.4v-4z"/><path class="st3" d="M175.7 138.1h-18.4v6.5h18.4zM195.1 140.6v-2.5h-18.4v6.5h18.4z"/><path class="st5" d="M83.6 56.5v59.1h189V56.5h-189zm188.6.5v58.1H84.1V57h188.1z"/><path class="st6" d="M83.6 47.1h33.5V54H83.6zM239.2 47.1h33.5V54h-33.5z"/><path class="st7" d="M276.5 29.8H79.7c-6.6 0-12 5.4-12 12h220.8c0-6.7-5.4-12-12-12z"/><path class="st4" d="M67.7 41.8h220.8v2.3H67.7z"/><path class="st2" d="M278.6 126.6h4.4c6.6 0 12 5.4 12 12v51.6c0 6.6-5.4 12-12 12h-28.4"/><path class="st8" d="M188.8 176.2H187.4v.1c-6 .7-10.7 5.7-10.7 11.9v28c0 6.2 4.7 11.3 10.7 11.9v.1H254.5v-52h-65.7z"/><path class="st4" d="M192.3 180.5h57v43.3h-57zM181.8 214.7h8.7v5.6h-8.7zM181.8 207.1h8.7v5.6h-8.7zM181.8 189.6h8.7v5.5h-8.7zM181.8 183.1h8.7v5.5h-8.7z"/><circle class="st4" cx="186.1" cy="201.3" r="4.4"/><circle class="st8" cx="186.1" cy="201.3" r="2.9"/><g><path class="st9" d="M56.6 132.3c.5 2.3-.9 4.6-3.2 5.1l-31 7c-2.3.5-4.6-.9-5.1-3.2L.1 65.8c-.5-2.3.9-4.6 3.2-5.1l31-7c2.3-.5 4.6.9 5.1 3.2l17.2 75.4z"/><path class="st9" d="M17.4 134.4L3.3 72.2l36-8.1 14.1 62.2-36 8.1zM5.7 73.7L18.9 132l32.1-7.3-13.2-58.3-32.1 7.3z"/><ellipse transform="rotate(-12.744 36.443 134.918)" class="st10" cx="36.5" cy="134.9" rx="3.8" ry="3.8"/><path class="st9" d="M35.8 136.9c-.4 0-.8-.3-.9-.7l-.4-1.7c-.1-.5.2-1 .7-1.1l1.7-.4c.5-.1 1 .2 1.1.7l.4 1.7c.1.2 0 .5-.1.7-.1.2-.3.4-.6.4l-1.7.4h-.2zm1.3-3.4s-.1 0 0 0l-1.8.4c-.2.1-.4.3-.3.5l.4 1.7c.1.2.3.4.5.3l1.7-.4c.1 0 .2-.1.3-.2.1-.1.1-.2.1-.3l-.4-1.7c-.1-.2-.3-.3-.5-.3z"/><path class="st10" d="M24.2 63.8c.1.4-.1.7-.5.8L17.6 66c-.4.1-.7-.1-.8-.5l-.1-.5c-.1-.4.1-.7.5-.8l6.1-1.4c.4-.1.7.1.8.5l.1.5z"/><ellipse transform="rotate(-12.735 19.83 61.458)" class="st10" cx="19.8" cy="61.5" rx="1" ry="1"/><path transform="rotate(-12.744 28.367 99.204)" class="st4" d="M10.9 68.3h34.9v61.8H10.9z"/><path class="st10" d="M17.8 133.8L3.9 72.6l35-7.9 13.8 61.2-34.9 7.9zM5.1 73.3l13.4 59.3 33.1-7.5-13.4-59.3-33.1 7.5z"/><g><path class="st8" d="M18.5 132.6l19.7-66.8 13.4 59.3z"/></g></g><g><path class="st11" d="M86.4 124.7h42.1v40.7H86.4z"/><path class="st11" d="M101.6 87.9c2.5 0 4.4 2 4.4 4.4V126h-8.9V92.3c.1-2.4 2-4.4 4.5-4.4zM112.9 84.4c2.5 0 4.4 2 4.4 4.4v37.6l-8.9-1V88.9c.1-2.5 2.1-4.5 4.5-4.5zM124.1 93.5c2.4 0 4.4 2 4.4 4.4v34.4h-8.7V97.9c0-2.4 1.9-4.4 4.3-4.4zM90.6 96.9c2.3 0 4.2 1.9 4.2 4.2v24.4l-8.3.6v-24.9c-.1-2.4 1.8-4.3 4.1-4.3z"/><path class="st12" d="M128.5 165.7v-26.5l4.9-6.2c1-1.1 2.5-1.7 4.1-1.7 3.2 0 5.8 2.6 5.8 5.8 0 .9-.2 1.8-.6 2.6l-.3.5c0 .1-.1.1-.1.2l-13.8 25.3z"/><path class="st11" d="M86.4 165.2c0 3.2 2.6 5.8 5.8 5.8h30.6c3.2 0 5.8-2.6 5.8-5.8 0-3.2-2.6-5.8-5.8-5.8H92.2c-3.2.1-5.8 2.6-5.8 5.8z"/><path class="st11" d="M94.1 164.5h26.6v42.2H94.1z"/></g><g><path class="st11" d="M204.9 124.7H247v40.7h-42.1z"/><path class="st11" d="M231.8 87.9c-2.5 0-4.4 2-4.4 4.4V126h8.9V92.3c0-2.4-2-4.4-4.5-4.4zM220.5 84.4c-2.5 0-4.4 2-4.4 4.4v37.6l8.9-1V88.9c-.1-2.5-2-4.5-4.5-4.5zM209.3 93.5c-2.4 0-4.4 2-4.4 4.4v34.4h8.7V97.9c0-2.4-1.9-4.4-4.3-4.4zM242.9 96.9c-2.3 0-4.2 1.9-4.2 4.2v24.4l8.3.6v-24.9c0-2.4-1.8-4.3-4.1-4.3z"/><path class="st12" d="M204.9 165.7v-26.5L200 133c-1-1.1-2.5-1.7-4.1-1.7-3.2 0-5.8 2.6-5.8 5.8 0 .9.2 1.8.6 2.6l.3.5c0 .1.1.1.1.2l13.8 25.3z"/><path class="st11" d="M247 165.2c0 3.2-2.6 5.8-5.8 5.8h-30.6c-3.2 0-5.8-2.6-5.8-5.8 0-3.2 2.6-5.8 5.8-5.8h30.6c3.2.1 5.8 2.6 5.8 5.8z"/><path class="st11" d="M212.7 164.5h26.6v42.2h-26.6z"/></g><g><path class="st13" d="M107.4 181.5H129v53.8h-21.6z"/><path class="st14" d="M85.9 181.5h21.6v53.8H85.9z"/></g><circle class="st8" cx="123.1" cy="190.9" r="3.8"/><g><path class="st14" d="M224.8 181.5h21.6v53.8h-21.6z"/><path class="st13" d="M203.2 181.5h21.6v53.8h-21.6z"/></g><circle class="st8" cx="209.1" cy="190.9" r="3.8"/><path class="st15" d="M211.8 95.2h-5.7v4.5c0 .6.5 1.1 1.1 1.1h3.5c.6 0 1.1-.5 1.1-1.1v-4.5zM223.2 86.1h-5.7v4.5c0 .6.5 1.1 1.1 1.1h3.5c.6 0 1.1-.5 1.1-1.1v-4.5zM234.2 89.5H229v4c0 .6.4 1 1 1h3.2c.6 0 1-.4 1-1v-4zM245.2 99h-5V102.8c0 .5.4 1 1 1h3.1c.5 0 1-.4 1-1V99zM121.3 96.3h5.7v4.5c0 .6-.5 1.1-1.1 1.1h-3.5c-.6 0-1.1-.5-1.1-1.1v-4.5zM109.9 87.2h5.7v4.5c0 .6-.5 1.1-1.1 1.1H111c-.6 0-1.1-.5-1.1-1.1v-4.5zM98.9 90.7h5.2v4c0 .6-.4 1-1 1h-3.2c-.6 0-1-.4-1-1v-4zM87.9 100.1h5V103.9c0 .5-.4 1-1 1h-3.1c-.5 0-1-.4-1-1V100.1z"/><path class="st6" d="M107.4 171h13.3v10.5h-13.3zM212.7 171h12.1v10.5h-12.1z"/><path class="st0" d="M367.5 100.7h-34.6V57.5h41.2v36z"/><path class="st3" d="M335.6 61.3h22.8v3.5h-22.8zM335.6 72.4h22.8v3.5h-22.8zM357.8 67h12.7v3.5h-12.7zM361.1 61.3h9.4v3.5h-9.4zM335.6 78h9.4v3.5h-9.4zM359.7 72.4h7.4v3.5h-7.4zM368.2 72.4h4v3.5h-4zM347 67h9.4v3.5H347zM335.2 67h9.4v3.5h-9.4z"/><path class="st16" d="M367.5 100.7l.2-6.8 6.4-.4z"/><g><path transform="rotate(-63.901 333.499 3.4)" class="st17" d="M331.7-.7h3.6v8.1h-3.6z"/><path transform="rotate(-63.9 335.31 4.295)" class="st18" d="M333.5 2.3h3.6v4.1h-3.6z"/><path transform="rotate(-63.889 323.05 29.235)" class="st19" d="M297.7 27.1h50.7v4.2h-50.7z"/><path transform="rotate(-63.9 319.492 27.51)" class="st20" d="M294.2 25.4h50.7v4.2h-50.7z"/><path transform="rotate(-63.9 332.42 5.607)" class="st8" d="M331.8 1.5h1.3v8.1h-1.3z"/><path class="st11" d="M306.5 49.3l-.9 10.2 8.2-6.6z"/><path class="st8" d="M305.6 59.5l.1-1.6 1.2.6z"/></g></svg>