<svg id="Layer_1" xmlns="http://www.w3.org/2000/svg" viewBox="0 0 24 24"><style>.st0{fill:#fff}</style><path class="st0" d="M9.6.5H1.8C1.1.5.5 1.1.5 1.8v7.8c0 .7.6 1.3 1.3 1.3h7.8c.7 0 1.3-.6 1.3-1.3V1.8C11 1.1 10.4.5 9.6.5zm0 0M13.9 11h7.8c.7 0 1.3-.6 1.3-1.3V1.8c0-.7-.6-1.3-1.3-1.3h-7.8c-.7 0-1.3.6-1.3 1.3v7.8c0 .8.6 1.4 1.3 1.4zm0 0M9.6 12.6H1.8c-.7 0-1.3.6-1.3 1.3v7.8c0 .7.6 1.3 1.3 1.3h7.8c.7 0 1.3-.6 1.3-1.3V14c.1-.8-.5-1.4-1.3-1.4zm0 0M22.7 17h-4v-4c0-.4-.4-.8-.8-.8s-.8.4-.8.8v4h-4c-.4 0-.8.4-.8.8s.4.8.8.8h4v4c0 .4.4.8.8.8s.8-.4.8-.8v-4h4c.4 0 .8-.4.8-.8s-.4-.8-.8-.8zm0 0"/></svg>